<mxfile host="app.diagrams.net" modified="2022-09-03T14:21:12.524Z" agent="5.0 (Windows NT 10.0; Win64; x64) AppleWebKit/537.36 (KHTML, like Gecko) Chrome/104.0.0.0 Safari/537.36" etag="yqRJw2QHFd7Z-_YqMvAK" version="20.2.8" type="github">
  <diagram id="R2lEEEUBdFMjLlhIrx00" name="Page-1">
    <mxGraphModel dx="942" dy="574" grid="1" gridSize="10" guides="1" tooltips="1" connect="1" arrows="1" fold="1" page="1" pageScale="1" pageWidth="850" pageHeight="1100" background="#114B5F" math="0" shadow="0" extFonts="Permanent Marker^https://fonts.googleapis.com/css?family=Permanent+Marker">
      <root>
        <mxCell id="0" />
        <mxCell id="1" parent="0" />
        <mxCell id="sD-hgVSCtCHSojoEJb6M-11" value="&lt;font style=&quot;font-size: 18px;&quot;&gt;로그인정보&lt;/font&gt;" style="rounded=1;whiteSpace=wrap;html=1;strokeColor=#028090;fontColor=#E4FDE1;fillColor=#F45B69;strokeWidth=5;shadow=1;" parent="1" vertex="1">
          <mxGeometry x="180" y="240" width="120" height="60" as="geometry" />
        </mxCell>
        <mxCell id="sD-hgVSCtCHSojoEJb6M-12" value="&lt;font style=&quot;font-size: 18px;&quot;&gt;소유&lt;/font&gt;" style="rhombus;whiteSpace=wrap;html=1;strokeColor=#028090;fontColor=#E4FDE1;fillColor=#F45B69;strokeWidth=5;rounded=1;shadow=1;" parent="1" vertex="1">
          <mxGeometry x="380" y="280" width="80" height="80" as="geometry" />
        </mxCell>
        <mxCell id="sD-hgVSCtCHSojoEJb6M-13" value="&lt;font style=&quot;font-size: 18px;&quot;&gt;위치정보&lt;/font&gt;" style="rounded=1;whiteSpace=wrap;html=1;strokeColor=#028090;fontColor=#E4FDE1;fillColor=#F45B69;strokeWidth=5;shadow=1;" parent="1" vertex="1">
          <mxGeometry x="540" y="240" width="120" height="60" as="geometry" />
        </mxCell>
        <mxCell id="sD-hgVSCtCHSojoEJb6M-14" value="" style="endArrow=none;html=1;rounded=0;strokeColor=#028090;fontColor=#E4FDE1;fillColor=#F45B69;entryX=0;entryY=0.5;entryDx=0;entryDy=0;exitX=1;exitY=0.5;exitDx=0;exitDy=0;targetPerimeterSpacing=5;strokeWidth=5;shadow=1;" parent="1" source="sD-hgVSCtCHSojoEJb6M-12" target="sD-hgVSCtCHSojoEJb6M-13" edge="1">
          <mxGeometry width="50" height="50" relative="1" as="geometry">
            <mxPoint x="420" y="380" as="sourcePoint" />
            <mxPoint x="470" y="330" as="targetPoint" />
            <Array as="points">
              <mxPoint x="500" y="320" />
              <mxPoint x="500" y="270" />
            </Array>
          </mxGeometry>
        </mxCell>
        <mxCell id="sD-hgVSCtCHSojoEJb6M-15" value="이름" style="ellipse;whiteSpace=wrap;html=1;aspect=fixed;rounded=1;shadow=1;strokeColor=#028090;strokeWidth=5;fontSize=18;fontColor=#E4FDE1;fillColor=#F45B69;" parent="1" vertex="1">
          <mxGeometry x="180" y="130" width="80" height="80" as="geometry" />
        </mxCell>
        <mxCell id="sD-hgVSCtCHSojoEJb6M-16" value="아이디" style="ellipse;whiteSpace=wrap;html=1;aspect=fixed;rounded=1;shadow=1;strokeColor=#028090;strokeWidth=5;fontSize=18;fontColor=#E4FDE1;fillColor=#F45B69;" parent="1" vertex="1">
          <mxGeometry x="80" y="230" width="80" height="80" as="geometry" />
        </mxCell>
        <mxCell id="sD-hgVSCtCHSojoEJb6M-17" value="비밀번호" style="ellipse;whiteSpace=wrap;html=1;aspect=fixed;rounded=1;shadow=1;strokeColor=#028090;strokeWidth=5;fontSize=18;fontColor=#E4FDE1;fillColor=#F45B69;" parent="1" vertex="1">
          <mxGeometry x="80" y="130" width="80" height="80" as="geometry" />
        </mxCell>
        <mxCell id="sD-hgVSCtCHSojoEJb6M-18" value="" style="endArrow=none;html=1;rounded=0;shadow=1;strokeColor=#028090;strokeWidth=5;fontSize=18;fontColor=#E4FDE1;targetPerimeterSpacing=5;fillColor=#F45B69;exitX=0;exitY=0.5;exitDx=0;exitDy=0;entryX=1;entryY=0.5;entryDx=0;entryDy=0;" parent="1" source="sD-hgVSCtCHSojoEJb6M-12" target="sD-hgVSCtCHSojoEJb6M-11" edge="1">
          <mxGeometry width="50" height="50" relative="1" as="geometry">
            <mxPoint x="420" y="290" as="sourcePoint" />
            <mxPoint x="320" y="270" as="targetPoint" />
            <Array as="points">
              <mxPoint x="340" y="320" />
              <mxPoint x="340" y="270" />
            </Array>
          </mxGeometry>
        </mxCell>
        <mxCell id="sD-hgVSCtCHSojoEJb6M-19" value="&lt;font style=&quot;font-size: 18px;&quot;&gt;사용자&lt;/font&gt;" style="rounded=1;whiteSpace=wrap;html=1;strokeColor=#028090;fontColor=#E4FDE1;fillColor=#F45B69;strokeWidth=5;shadow=1;" parent="1" vertex="1">
          <mxGeometry x="360" y="110" width="120" height="60" as="geometry" />
        </mxCell>
        <mxCell id="sD-hgVSCtCHSojoEJb6M-20" value="" style="endArrow=none;html=1;rounded=0;shadow=1;strokeColor=#028090;strokeWidth=5;fontSize=18;fontColor=#E4FDE1;targetPerimeterSpacing=5;fillColor=#F45B69;entryX=0.5;entryY=1;entryDx=0;entryDy=0;exitX=0.5;exitY=0;exitDx=0;exitDy=0;" parent="1" source="sD-hgVSCtCHSojoEJb6M-12" target="sD-hgVSCtCHSojoEJb6M-19" edge="1">
          <mxGeometry width="50" height="50" relative="1" as="geometry">
            <mxPoint x="420" y="290" as="sourcePoint" />
            <mxPoint x="470" y="240" as="targetPoint" />
          </mxGeometry>
        </mxCell>
        <mxCell id="oLA4HVqc4XkFMgsmZxQA-1" value="싸비&lt;br&gt;" style="rounded=1;whiteSpace=wrap;html=1;" vertex="1" parent="1">
          <mxGeometry x="320" y="400" width="120" height="60" as="geometry" />
        </mxCell>
      </root>
    </mxGraphModel>
  </diagram>
</mxfile>
